<svg
    width="14"
    height="14"
    viewBox="0 0 14 14"
    fill="none"
    xmlns="http://www.w3.org/2000/svg">
    <path
    d="M11.6667 12.8333H2.33333C2.17862 12.8333 2.03025 12.7718 1.92085 12.6624C1.81146 12.553 1.75 12.4047 1.75 12.25V1.74996C1.75 1.59525 1.81146 1.44688 1.92085 1.33748C2.03025 1.22808 2.17862 1.16663 2.33333 1.16663H11.6667C11.8214 1.16663 11.9697 1.22808 12.0791 1.33748C12.1885 1.44688 12.25 1.59525 12.25 1.74996V12.25C12.25 12.4047 12.1885 12.553 12.0791 12.6624C11.9697 12.7718 11.8214 12.8333 11.6667 12.8333ZM4.66667 4.08329V5.24996H9.33333V4.08329H4.66667ZM4.66667 6.41663V7.58329H9.33333V6.41663H4.66667ZM4.66667 8.74996V9.91663H7.58333V8.74996H4.66667Z"
    fill="#6A737D"/>
</svg>