<svg
    width="14"
    height="14"
    viewBox="0 0 14 14"
    fill="none"
    xmlns="http://www.w3.org/2000/svg">
    <path
        d="M10.6954 10.6977H9.14083V8.26117C9.14083 7.68017 9.12917 6.93233 8.33 6.93233C7.51975 6.93233 7.39608 7.56467 7.39608 8.21858V10.6977H5.84092V5.6875H7.33425V6.37H7.35467C7.5635 5.97683 8.071 5.56092 8.82933 5.56092C10.4043 5.56092 10.696 6.59808 10.696 7.94733V10.6977H10.6954ZM4.08508 5.00208C3.96641 5.00224 3.84887 4.97897 3.7392 4.9336C3.62954 4.88824 3.52991 4.82168 3.44602 4.73774C3.36213 4.65379 3.29563 4.55412 3.25034 4.44442C3.20505 4.33473 3.18185 4.21718 3.18208 4.0985C3.1822 3.9199 3.23527 3.74535 3.33459 3.59692C3.43391 3.44849 3.57501 3.33284 3.74006 3.2646C3.9051 3.19636 4.08668 3.17859 4.26182 3.21355C4.43696 3.2485 4.59781 3.33461 4.72401 3.46098C4.85022 3.58735 4.93612 3.7483 4.97085 3.92349C5.00557 4.09868 4.98758 4.28023 4.91912 4.44519C4.85067 4.61014 4.73484 4.7511 4.58628 4.85022C4.43772 4.94935 4.2631 5.0022 4.0845 5.00208H4.08508ZM4.86442 10.6977H3.30517V5.6875H4.865V10.6977H4.86442ZM11.4742 1.75H2.52525C2.09592 1.75 1.75 2.08833 1.75 2.50658V11.4934C1.75 11.9117 2.0965 12.25 2.52467 12.25H11.4718C11.9 12.25 12.25 11.9117 12.25 11.4934V2.50658C12.25 2.08833 11.9 1.75 11.4718 1.75H11.4736H11.4742Z"
        fill="#6A737D"/>
</svg>