<svg
    width="14"
    height="14"
    viewBox="0 0 14 14"
    fill="none"
    xmlns="http://www.w3.org/2000/svg">
    <path
    d="M1.3085 3.99816L6.70258 0.764161C6.79324 0.709765 6.89698 0.68103 7.00271 0.68103C7.10843 0.68103 7.21217 0.709765 7.30283 0.764161L12.6917 3.99874C12.7349 4.02465 12.7707 4.06132 12.7955 4.10518C12.8204 4.14904 12.8334 4.19859 12.8334 4.24899V11.6667C12.8334 11.8214 12.772 11.9697 12.6626 12.0791C12.5532 12.1885 12.4048 12.25 12.2501 12.25H1.75008C1.59537 12.25 1.447 12.1885 1.3376 12.0791C1.22821 11.9697 1.16675 11.8214 1.16675 11.6667V4.24841C1.16674 4.198 1.17979 4.14846 1.20463 4.1046C1.22948 4.06074 1.26526 4.02407 1.3085 3.99816ZM10.7019 4.80899L7.03566 7.98174L3.29416 4.80549L2.53933 5.69449L7.04266 9.51824L11.4649 5.69158L10.7019 4.80899V4.80899Z"
    fill="#6A737D"/>
</svg>